<svg width="24" height="24" viewBox="0 0 24 24" fill="none" xmlns="http://www.w3.org/2000/svg">
<g clip-path="url(#clip0_371_695)">
<g clip-path="url(#clip1_371_695)">
<path d="M6.547 14.4923C6.547 15.5883 5.6619 16.4741 4.56677 16.4741C3.47165 16.4741 2.58655 15.5883 2.58655 14.4923C2.58655 13.3963 3.47165 12.5105 4.56677 12.5105H6.547V14.4923ZM7.53711 14.4923C7.53711 13.3963 8.42221 12.5105 9.51733 12.5105C10.6125 12.5105 11.4976 13.3963 11.4976 14.4923V19.4468C11.4976 20.5428 10.6125 21.4286 9.51733 21.4286C8.42221 21.4286 7.53711 20.5428 7.53711 19.4468V14.4923Z" fill="#E01E5A"/>
<path d="M9.51732 6.53499C8.4222 6.53499 7.5371 5.64918 7.5371 4.55318C7.5371 3.45719 8.4222 2.57138 9.51732 2.57138C10.6124 2.57138 11.4975 3.45719 11.4975 4.55318V6.53499H9.51732ZM9.51732 7.5409C10.6124 7.5409 11.4975 8.42671 11.4975 9.5227C11.4975 10.6187 10.6124 11.5045 9.51732 11.5045H4.55176C3.45663 11.5045 2.57153 10.6187 2.57153 9.5227C2.57153 8.42671 3.45663 7.5409 4.55176 7.5409H9.51732Z" fill="#36C5F0"/>
<path d="M17.4535 9.52279C17.4535 8.4268 18.3386 7.54099 19.4337 7.54099C20.5288 7.54099 21.4139 8.4268 21.4139 9.52279C21.4139 10.6188 20.5288 11.5046 19.4337 11.5046H17.4535V9.52279ZM16.4634 9.52279C16.4634 10.6188 15.5783 11.5046 14.4832 11.5046C13.388 11.5046 12.5029 10.6188 12.5029 9.52279V4.55327C12.5029 3.45728 13.388 2.57147 14.4832 2.57147C15.5783 2.57147 16.4634 3.45728 16.4634 4.55327V9.52279Z" fill="#2EB67D"/>
<path d="M14.4827 17.465C15.5778 17.465 16.4629 18.3508 16.4629 19.4468C16.4629 20.5428 15.5778 21.4286 14.4827 21.4286C13.3875 21.4286 12.5024 20.5428 12.5024 19.4468V17.465H14.4827ZM14.4827 16.4741C13.3875 16.4741 12.5024 15.5883 12.5024 14.4923C12.5024 13.3963 13.3875 12.5105 14.4827 12.5105H19.4482C20.5434 12.5105 21.4285 13.3963 21.4285 14.4923C21.4285 15.5883 20.5434 16.4741 19.4482 16.4741H14.4827Z" fill="#ECB22E"/>
</g>
</g>
<defs>
<clipPath id="clip0_371_695">
<rect width="24" height="24" fill="white"/>
</clipPath>
<clipPath id="clip1_371_695">
<rect width="24" height="24" fill="white"/>
</clipPath>
</defs>
</svg>
